HIERARCHY
ROOT ROOT
{
	OFFSET 0.000000 56.020000 -5.659234
	CHANNELS 6 Xposition Yposition Zposition Xrotation Yrotation Zrotation 
	JOINT C_spine0001_bind_JNT
	{
		OFFSET 0.000000 1.618999 0.000000
		CHANNELS 3 Xrotation Yrotation Zrotation
		JOINT C_spine0002_bind_JNT
		{
			OFFSET 0.000000 4.942001 0.000001
			CHANNELS 3 Xrotation Yrotation Zrotation
			JOINT C_spine0003_bind_JNT
			{
				OFFSET 0.000000 4.942001 -0.000000
				CHANNELS 3 Xrotation Yrotation Zrotation
				JOINT C_neck0001_bind_JNT
				{
					OFFSET 0.000000 17.026009 -0.000000
					CHANNELS 3 Xrotation Yrotation Zrotation
					JOINT C_neck0002_bind_JNT
					{
						OFFSET 0.000000 3.249985 0.000000
						CHANNELS 3 Xrotation Yrotation Zrotation
						JOINT C_head_bind_JNT
						{
							OFFSET 0.000000 5.278008 0.000000
							CHANNELS 3 Xrotation Yrotation Zrotation
							End Site
							{
								OFFSET 0.000000 0.000000 0.000000
							}
						}
					}
				}
				JOINT L_clavicle_bind_JNT
				{
					OFFSET 4.590000 12.067001 0.834000
					CHANNELS 3 Xrotation Yrotation Zrotation
					JOINT L_armUpper0001_bind_JNT
					{
						OFFSET 7.812635 0.512001 -3.452945
						CHANNELS 3 Xrotation Yrotation Zrotation
						JOINT L_armLower0001_bind_JNT
						{
							OFFSET 15.265892 -6.552116 -0.058157
							CHANNELS 3 Xrotation Yrotation Zrotation
							JOINT L_hand0001_bind_JNT
							{
								OFFSET 14.747667 -6.369995 5.049225
								CHANNELS 3 Xrotation Yrotation Zrotation
								End Site
								{
									OFFSET 0.000000 0.000000 0.000000
								}
							}
						}
					}
				}
				JOINT R_clavicle_bind_JNT
				{
					OFFSET -4.590000 12.067001 0.834000
					CHANNELS 3 Xrotation Yrotation Zrotation
					JOINT R_armUpper0001_bind_JNT
					{
						OFFSET -7.812635 0.512001 -3.452945
						CHANNELS 3 Xrotation Yrotation Zrotation
						JOINT R_armLower0001_bind_JNT
						{
							OFFSET -15.265890 -6.552124 -0.058160
							CHANNELS 3 Xrotation Yrotation Zrotation
							JOINT R_hand0001_bind_JNT
							{
								OFFSET -14.746784 -6.369629 5.048937
								CHANNELS 3 Xrotation Yrotation Zrotation
								End Site
								{
									OFFSET 0.000000 0.000000 0.000000
								}
							}
						}
					}
				}
			}
		}
	}
	JOINT C_pelvis0001_bind_JNT
	{
		OFFSET -0.000000 0.000000 0.000000
		CHANNELS 3 Xrotation Yrotation Zrotation
		JOINT L_legUpper0001_bind_JNT
		{
			OFFSET 6.599999 -6.027000 0.539000
			CHANNELS 3 Xrotation Yrotation Zrotation
			JOINT L_legLower0001_bind_JNT
			{
				OFFSET -0.140713 -19.187443 0.040261
				CHANNELS 3 Xrotation Yrotation Zrotation
				JOINT L_foot0001_bind_JNT
				{
					OFFSET -0.132215 -18.028637 -1.138370
					CHANNELS 3 Xrotation Yrotation Zrotation
					JOINT L_foot0002_bind_JNT
					{
						OFFSET 0.007014 -4.693133 9.886524
						CHANNELS 3 Xrotation Yrotation Zrotation
						End Site
						{
							OFFSET 0.000000 0.000000 0.000000
						}
					}
				}
			}
		}
		JOINT R_legUpper0001_bind_JNT
		{
			OFFSET -6.599999 -6.027000 0.539000
			CHANNELS 3 Xrotation Yrotation Zrotation
			JOINT R_legLower0001_bind_JNT
			{
				OFFSET 0.140710 -19.187164 0.040550
				CHANNELS 3 Xrotation Yrotation Zrotation
				JOINT R_foot0001_bind_JNT
				{
					OFFSET 0.132215 -18.028633 -1.138362
					CHANNELS 3 Xrotation Yrotation Zrotation
					JOINT R_foot0002_bind_JNT
					{
						OFFSET -0.007014 -4.693128 9.886505
						CHANNELS 3 Xrotation Yrotation Zrotation
						End Site
						{
							OFFSET 0.000000 0.000000 0.000000
						}
					}
				}
			}
		}
	}
}
MOTION
Frames: 14
Frame Time: 0.033333
-8.418167 45.009125 58.508354 0.024478 11.618012 -0.029265 0.347758 -2.533982 -6.761786 10.738139 -2.355603 -1.818330 6.396799 -0.217040 -0.016237 -1.101756 -1.620842 -4.595316 1.280725 -8.570202 3.031631 8.954171 2.346252 15.754116 -5.792082 4.459326 2.424030 -9.309331 18.879498 -59.806076 -18.605576 -2.521751 -14.306711 6.730943 -33.854881 26.152594 -10.889032 -13.480102 -0.461605 5.428233 -26.022873 52.027931 -2.513042 -5.818277 2.796442 -1.564796 22.279829 -0.322922 0.981951 -2.842084 -5.060960 -16.271402 1.661714 8.972628 50.825623 -3.418143 4.183398 -20.785719 1.587978 -3.354898 -14.160376 -0.262595 0.145815 -29.810102 -2.785168 -10.521747 26.606478 -9.752180 3.665846 5.499907 7.344131 9.852677 -1.883072 0.547107 0.634520 
-8.935884 45.387886 59.637794 0.026434 10.931072 -0.025409 0.110336 -2.220821 -6.145652 10.082173 -2.164115 -1.374183 5.922850 -0.333109 0.014180 -1.081902 -1.459763 -4.921460 1.281590 -8.754108 3.435616 9.385343 2.492411 14.719323 -5.589327 5.165338 2.265062 -7.945354 19.959362 -59.219677 -17.476198 -0.919099 -13.506366 4.651988 -34.068596 23.842136 -10.538387 -13.754494 -0.656942 4.873874 -25.864595 51.797089 -2.608031 -6.448958 2.920260 -1.970120 23.321560 -1.618185 0.919339 -2.395773 -4.610503 -13.926356 0.979298 8.728162 48.276428 -2.836416 3.584126 -18.117182 1.665742 -3.229684 -16.288229 -0.093450 0.184567 -28.890585 -2.727368 -9.583484 27.272346 -10.347445 3.633768 4.130010 6.997367 9.358247 -2.207141 0.635105 0.563749 
-9.406087 45.922916 60.685131 0.025645 10.668041 -0.025998 -0.202680 -2.633905 -5.550680 9.408987 -1.827355 -0.814992 5.518331 -0.162218 0.299385 -1.049220 -1.094351 -5.295046 1.303282 -9.290773 3.556588 9.786562 2.747561 13.762231 -5.612154 5.839214 2.125808 -6.117049 21.698145 -58.853714 -15.788972 0.649022 -12.530032 2.199114 -33.820797 21.360268 -10.521507 -13.844225 -1.040234 4.650100 -25.778744 51.446537 -2.671191 -6.134863 3.247380 -2.578447 23.778616 -2.824598 0.541697 -2.851837 -4.016537 -12.228567 0.895791 8.477877 46.626396 -1.707749 2.548460 -15.226349 1.233172 -2.995487 -18.802586 -0.176520 0.247950 -27.049740 -2.580161 -8.895238 27.230303 -10.489706 3.715537 2.586644 7.043740 8.943785 -1.991544 0.702644 0.399915 
-9.838328 46.361248 61.762249 0.020257 10.316051 -0.015714 -0.605138 -3.154265 -4.962075 8.941530 -1.575723 -0.079213 5.000057 -0.090417 0.558903 -1.041924 -0.678408 -5.347812 1.229421 -9.116245 3.129221 10.146648 2.995823 12.507839 -5.173584 6.709356 1.747311 -5.208717 23.043509 -58.381763 -14.400312 3.140268 -10.824079 0.115048 -33.557781 19.001284 -10.100839 -13.745114 -1.424594 4.045680 -25.016314 51.462009 -3.571239 -6.258614 3.523060 -2.701241 24.889690 -3.999143 0.059878 -3.311556 -3.334652 -10.430634 0.844480 8.244890 45.377327 -0.714509 1.349949 -12.013617 0.809009 -3.208876 -21.853750 0.260689 0.215527 -25.331806 -2.368958 -8.520814 27.279213 -9.969118 3.342075 1.123336 6.395487 8.488732 -1.961632 0.638742 0.340180 
-10.334839 46.835613 62.952908 0.020153 9.940806 -0.014849 -1.080538 -3.618020 -4.392694 8.249678 -1.111732 0.761060 4.627650 0.120780 0.956995 -1.073692 -0.303273 -5.016543 1.302118 -8.709721 2.733516 10.492564 2.691006 10.986841 -4.933298 7.251428 1.424979 -3.243942 25.177967 -58.175785 -12.907609 4.581913 -9.290023 -1.660752 -31.972120 16.773024 -9.792375 -13.505266 -1.638097 3.662060 -24.365679 51.713463 -4.424298 -6.018541 3.441028 -3.117956 25.927599 -4.950285 -0.419191 -3.936898 -2.598756 -10.415439 0.925225 7.866789 45.722794 0.251500 0.204063 -8.424001 -0.233728 -2.922654 -24.629175 0.309974 -0.246542 -22.984196 -1.845580 -8.053627 27.128561 -9.303568 3.303235 -0.974312 5.806694 8.082882 -1.764035 0.786327 0.238283 
-10.815561 47.276321 64.048569 0.018258 9.803480 -0.017355 -1.878587 -4.400938 -3.818250 7.694663 -0.670274 1.745793 4.085966 0.452127 1.317035 -1.283461 -0.155959 -4.199158 1.500915 -7.855465 2.045923 11.104989 2.250099 9.098329 -4.494369 7.886888 1.199608 -1.359240 26.605095 -58.186855 -11.697991 6.760886 -7.370555 -3.142103 -30.728981 14.756695 -9.095189 -13.198700 -2.021127 3.540679 -23.260986 52.301941 -5.583996 -5.696789 3.094048 -3.271414 26.815130 -5.748144 -1.122008 -4.621040 -2.011115 -10.184649 0.443459 7.614378 46.310326 1.123282 -1.020895 -4.492530 -1.263379 -3.714473 -26.435869 0.395732 -0.587459 -21.130402 -1.680994 -7.470234 27.411917 -8.462292 2.751466 -2.903828 5.269493 7.921537 -1.514053 0.698073 0.038610 
-11.228226 47.648819 65.186104 0.011850 9.689255 -0.018856 -2.519437 -5.239581 -3.365210 7.388546 -0.201191 2.721762 3.777479 0.849247 1.703649 -1.284887 -0.169441 -3.121304 1.418916 -6.936885 1.458486 11.636152 1.477119 7.072954 -4.262213 8.260197 1.167793 0.413266 28.515707 -57.876923 -10.623801 8.626110 -5.472464 -4.846563 -28.993906 12.014919 -8.646045 -13.048107 -2.409786 3.346941 -22.058386 53.254089 -6.604377 -5.000376 2.836087 -3.240849 27.571112 -6.960982 -1.823769 -5.753239 -1.529762 -10.963655 0.297990 7.678576 48.146671 2.001920 -2.061470 -1.178861 -3.075524 -4.231917 -26.891157 0.563076 -0.701183 -18.948746 -1.017379 -7.106686 27.727316 -7.808890 2.529127 -5.186442 5.038846 7.664369 -1.262923 0.781359 0.105162 
-11.692774 47.913227 66.259628 0.014890 9.450532 -0.015696 -3.221613 -6.080345 -2.861926 7.331892 0.317934 3.628060 3.561842 1.072710 2.132263 -1.170434 0.022197 -1.887727 1.368913 -6.158252 0.713291 11.888075 0.792125 5.289631 -4.191855 8.671421 1.133546 1.930567 30.489458 -57.594933 -9.090914 10.967566 -3.826483 -6.734216 -27.735521 9.679742 -8.369494 -12.522284 -2.802646 2.867370 -20.723848 53.768776 -7.678446 -4.968747 2.427392 -3.318308 28.215530 -7.538818 -2.399431 -6.524496 -0.987861 -11.671309 -0.038320 7.525441 50.152405 2.425979 -2.980799 1.446516 -4.478224 -5.212171 -26.172335 0.046773 -0.244804 -17.373222 -0.768609 -6.705157 28.214052 -7.306728 2.141069 -6.775616 5.003405 7.574416 -1.355892 0.849314 0.084024 
-12.106503 48.062553 67.332848 0.011253 9.430976 -0.016589 -3.887855 -7.154811 -2.282328 7.504787 0.819009 4.398475 3.405413 1.525496 2.406285 -0.918841 0.021730 -1.001337 1.360574 -5.409512 0.309906 11.562053 0.185997 3.552554 -4.269926 9.167369 1.176125 3.564677 31.874281 -57.368095 -8.033875 12.425852 -2.556911 -7.839925 -26.135534 7.609809 -7.906776 -12.125464 -3.167303 2.378907 -19.731121 54.691746 -8.751412 -4.884281 2.030673 -3.987910 29.298861 -7.681641 -2.719560 -7.606543 -0.541089 -12.980119 -0.134937 7.622934 51.990894 3.210442 -3.684808 2.898282 -5.981250 -5.999679 -24.573034 -0.091783 -0.082057 -15.792275 -0.651296 -6.525239 28.267836 -6.388022 1.867177 -8.372710 4.780843 7.307306 -1.350766 1.009742 0.238000 
-12.558919 48.169586 68.316994 0.018516 9.848211 -0.012847 -4.312088 -8.566141 -1.832228 7.293685 1.275129 5.249823 3.378314 1.820672 2.730788 -0.874714 0.124683 -0.057135 1.356154 -4.557785 -0.266610 11.553947 -0.053809 1.758585 -4.255935 9.642182 1.129102 4.780192 33.060711 -57.323002 -7.419481 13.944597 -1.557129 -8.174412 -25.029860 6.078345 -7.478429 -11.874601 -3.682945 1.819047 -18.403700 55.406494 -9.207513 -4.811811 1.861281 -4.738111 29.869246 -8.254537 -2.967666 -9.019867 0.165760 -14.420711 -0.078563 7.404809 53.487297 3.691884 -3.735391 3.516930 -7.076834 -7.056534 -22.187098 -0.217643 -0.105041 -14.231914 -0.367561 -6.583393 28.109268 -6.181136 1.891798 -9.471809 5.063083 7.285930 -1.212178 0.952034 0.021861 
-12.902277 48.279327 69.060402 0.013472 9.969836 -0.024206 -4.812154 -9.485605 -1.216491 7.426795 1.625275 5.761164 3.207743 2.163919 3.031185 -0.774605 0.135766 0.530609 1.301115 -3.982860 -0.657274 11.399538 -0.329035 0.141693 -3.975043 10.379020 0.938130 5.832882 33.663715 -57.320522 -6.540474 14.702033 -1.194628 -8.732178 -24.112614 5.163589 -7.032623 -11.383688 -4.058249 1.505508 -17.647600 56.153511 -9.616467 -4.329689 1.441494 -5.152718 30.843931 -8.640915 -3.189343 -9.856883 0.705031 -15.458830 -0.097039 7.377659 53.943813 4.469946 -3.902468 3.821971 -8.628872 -7.605950 -19.870695 -0.081708 -0.471654 -12.933318 -0.226728 -6.674361 27.754126 -5.203363 1.711355 -10.380672 4.718433 7.032973 -1.218484 1.094757 0.121964 
-13.137187 48.386513 69.509491 0.016504 9.874990 -0.029219 -4.987259 -10.097738 -0.414275 7.146303 2.087565 5.924805 3.087958 2.474680 3.219246 -0.880154 0.181907 1.213831 1.400821 -3.600396 -1.040311 11.880260 -0.617659 -1.082314 -3.956630 10.720663 0.789125 6.988680 34.567146 -57.294750 -6.333982 15.019064 -1.162609 -8.688252 -23.643793 5.004197 -6.703387 -11.094233 -4.329186 1.161856 -17.260923 56.280022 -9.436352 -3.832959 1.729719 -4.707765 31.811979 -9.291565 -3.444247 -10.159610 1.375777 -16.316998 -0.342887 7.014985 53.925274 4.909600 -4.274539 3.409627 -9.252604 -8.152648 -17.743710 -0.143569 -0.677948 -11.895806 -0.008518 -6.952126 26.906160 -4.728582 1.282323 -10.357841 4.535284 7.195190 -1.033906 0.906518 0.075377 
-13.272698 48.544064 69.925049 0.020233 9.792612 -0.015865 -5.104703 -10.549417 0.388700 6.927911 2.455895 6.004292 3.042471 2.736265 3.392535 -0.998287 0.242703 1.565527 1.513877 -3.505418 -1.237107 12.593519 -0.813227 -2.055375 -3.692452 11.264653 0.600799 7.822551 34.766865 -57.498257 -6.251789 15.349974 -1.318957 -9.118410 -23.765285 5.125965 -6.515772 -10.954328 -4.561562 1.013397 -16.694275 56.606113 -9.118079 -3.449120 1.723901 -4.433144 32.699356 -9.783678 -3.519463 -10.453004 1.962796 -16.950611 -0.510557 6.603224 52.797276 5.600076 -4.367937 3.196130 -9.823607 -8.815159 -16.701855 -0.295123 -0.961718 -10.922307 -0.146062 -7.378782 26.129915 -3.801213 0.877357 -10.437728 4.094209 7.255827 -1.132599 1.045791 0.025899 
-13.395206 48.742870 70.287483 0.015142 9.214265 -0.025590 -4.868655 -10.421933 1.235150 6.648362 2.756304 5.995826 3.022796 3.017772 3.458310 -1.469698 0.169972 2.042682 1.621174 -2.997195 -1.536052 13.316149 -0.759964 -3.097284 -3.505231 11.571873 0.572742 8.778352 35.320400 -58.454933 -6.363296 15.258613 -1.601819 -9.223532 -24.482647 6.045003 -6.531424 -10.851804 -4.687873 1.088078 -16.224684 56.967793 -8.600893 -2.917464 1.883019 -3.745144 33.735706 -10.692361 -3.441345 -10.191599 2.823428 -17.171139 -0.579610 5.847660 50.093319 6.095664 -4.454744 3.168334 -9.563951 -9.028613 -16.101099 -0.177111 -1.320001 -10.099578 -0.077590 -7.924608 24.903120 -3.356708 0.525852 -9.891829 3.925833 7.327478 -1.238750 0.829021 0.060982 
